# xmcd
#
# Track frame offsets: 
#        150
#        23407
#        44023
#        66816
#        86120
#        117831
#        141693
#        161637
#        197142
#        213650
#        241424
#        259246
#        286365
#
# Disc length: 4134 seconds
#
# Revision: 0
# Processed by: cddbd v1.5.2PL0 Copyright (c) Steve Scherf et al.
# Submitted via: ExactAudioCopy v0.99pb5
#
DISCID=cb10240d
DTITLE=Chris Duarte Group - Blues In The Afterburner
DYEAR=2011
DGENRE=Blues
TTITLE0=Another Man
TTITLE1=Make Me Feel So Right
TTITLE2=Bottle Blues
TTITLE3=Milwaukee Blues
TTITLE4=Hold Back The Tears
TTITLE5=Summer's Child
TTITLE6=Searching For You
TTITLE7=Black Clouds Rolling
TTITLE8=Don't Cha Drive Me Crazy
TTITLE9=Born To Race
TTITLE10=I've Been A Fool
TTITLE11=Prairie Jelly
TTITLE12=Sweet Young Pussycat
EXTD=
EXTT0=
EXTT1=
EXTT2=
EXTT3=
EXTT4=
EXTT5=
EXTT6=
EXTT7=
EXTT8=
EXTT9=
EXTT10=
EXTT11=
EXTT12=
PLAYORDER=
